<svg xmlns="http://www.w3.org/2000/svg" viewBox="0 0 800 600" width="800" height="600"><defs><pattern id="dots" width="10" height="10" patternUnits="userSpaceOnUse"><circle cx="5" cy="5" r="2.2" fill="#00a3e0" fill-opacity="0.35"/></pattern></defs><rect width="800" height="600" fill="#e3f4fb"/><rect width="800" height="600" fill="url(#dots)"/><rect x="0" y="470" width="800" height="130" fill="#f1f1f1"/><line x1="0" y1="470" x2="800" y2="470" stroke="#000000" stroke-width="6"/><rect x="672" y="250" width="96" height="220" fill="#ffffff" stroke="#000000" stroke-width="6"/><rect x="704" y="282" width="32" height="32" fill="#e5007d" stroke="#000000" stroke-width="4"/><circle cx="752" cy="370" r="6" fill="#000000"/><g transform="rotate(0 250 420)"><rect x="206" y="480" width="22" height="40" rx="9" fill="#00a3e0" stroke="#000000" stroke-width="6"/><rect x="272" y="480" width="22" height="40" rx="9" fill="#00a3e0" stroke="#000000" stroke-width="6"/><path d="M183.0 359.5 L127.0 264.0" stroke="#000000" stroke-width="6" stroke-linecap="round" fill="none"/><circle cx="127.0" cy="264.0" r="11" fill="#ffffff" stroke="#000000" stroke-width="5"/><path d="M317.0 359.5 L373.0 264.0" stroke="#000000" stroke-width="6" stroke-linecap="round" fill="none"/><circle cx="373.0" cy="264.0" r="11" fill="#ffffff" stroke="#000000" stroke-width="5"/><rect x="175" y="256" width="150" height="230" rx="30" fill="#00a3e0" stroke="#000000" stroke-width="6"/><line x1="250" y1="256" x2="250" y2="226" stroke="#000000" stroke-width="6"/><circle cx="250" cy="220" r="9" fill="#e5007d" stroke="#000000" stroke-width="4"/><rect x="197" y="282" width="106" height="92" rx="12" fill="#ffffff" stroke="#000000" stroke-width="5"/><rect x="242" y="297" width="16" height="62" fill="#000000"/><path d="M232 412 l14 12 l-14 12" stroke="#000000" stroke-width="5" fill="none" stroke-linecap="round" stroke-linejoin="round"/><line x1="252" y1="438" x2="272" y2="438" stroke="#000000" stroke-width="5" stroke-linecap="round"/></g><rect x="446" y="480" width="22" height="40" rx="9" fill="#e5007d" stroke="#000000" stroke-width="6"/><rect x="532" y="480" width="22" height="40" rx="9" fill="#e5007d" stroke="#000000" stroke-width="6"/><path d="M408.0 414.8 L382.0 486.0" stroke="#000000" stroke-width="6" stroke-linecap="round" fill="none"/><circle cx="382.0" cy="486.0" r="11" fill="#ffffff" stroke="#000000" stroke-width="5"/><path d="M592.0 414.8 L618.0 486.0" stroke="#000000" stroke-width="6" stroke-linecap="round" fill="none"/><circle cx="618.0" cy="486.0" r="11" fill="#ffffff" stroke="#000000" stroke-width="5"/><rect x="402" y="308" width="196" height="178" rx="70" fill="#e5007d" stroke="#000000" stroke-width="6"/><circle cx="460" cy="372" r="22" fill="#ffffff" stroke="#000000" stroke-width="5"/><circle cx="458" cy="379" r="8" fill="#000000"/><path d="M436 376 A24 24 0 0 1 484 376 Z" fill="#e5007d" stroke="#000000" stroke-width="5"/><circle cx="540" cy="372" r="22" fill="#ffffff" stroke="#000000" stroke-width="5"/><circle cx="538" cy="379" r="8" fill="#000000"/><path d="M516 376 A24 24 0 0 1 564 376 Z" fill="#e5007d" stroke="#000000" stroke-width="5"/><path d="M474 433 q13 -14 26 0 t26 0" stroke="#000000" stroke-width="5" fill="none" stroke-linecap="round"/></svg>
